<svg width="100" height="100" xmlns="http://www.w3.org/2000/svg">

 <g>
  <title>background</title>
  <rect fill="none" id="canvas_background" height="402" width="582" y="-1" x="-1"/>
 </g>
 <g>
  <title>Layer 1</title>
  <g id="svg_5">
   <path fill="#f0e6c0" id="svg_2" d="m83.827,45.868l-67.654,0c-2.282,0 -4.132,1.85 -4.132,4.132s1.85,4.132 4.132,4.132l67.655,0c2.282,0 4.132,-1.85 4.132,-4.132s-1.85,-4.132 -4.133,-4.132z"/>
   <path fill="#f0e6c0" id="svg_3" d="m83.827,71.239l-67.654,0c-2.282,0 -4.132,1.85 -4.132,4.132s1.85,4.132 4.132,4.132l67.655,0c2.282,0 4.132,-1.85 4.132,-4.132s-1.85,-4.132 -4.133,-4.132z"/>
   <path stroke="null" fill="#f0e6c0" id="svg_4" d="m16.173,28.761l67.655,0c2.282,0 4.132,-1.85 4.132,-4.132s-1.85,-4.132 -4.132,-4.132l-67.655,0c-2.282,0 -4.132,1.85 -4.132,4.132s1.849,4.132 4.132,4.132z"/>
  </g>
 </g>
</svg>