<svg width="77" height="77" xmlns="http://www.w3.org/2000/svg">

 <metadata id="metadata3075">image/svg+xml</metadata>
 <g>
  <title>background</title>
  <rect fill="none" id="canvas_background" height="79" width="79" y="-1" x="-1"/>
 </g>
 <g>
  <title>Layer 1</title>
  <g id="svg_2">
   <path fill="#006699" fill-rule="nonzero" id="path14" d="m0.622203,5.745351c0,-3.015728 2.506722,-5.461932 5.599066,-5.461932l64.56918,0c3.092242,0 5.599066,2.446204 5.599066,5.461932l0,65.324131c0,3.016747 -2.506824,5.461932 -5.599066,5.461932l-64.56918,0c-3.092344,0 -5.599066,-2.445185 -5.599066,-5.461932l0,-65.324131z"/>
   <path fill="#ffffff" fill-rule="evenodd" id="path28" d="m23.58962,64.110893l0,-34.43024l-11.443974,0l0,34.43024l11.443974,0zm-5.722038,-39.131107c3.990745,0 6.474646,-2.643856 6.474646,-5.947912c-0.074374,-3.37843 -2.4839,-5.948931 -6.398947,-5.948931c-3.914639,0 -6.474136,2.570501 -6.474136,5.948931c0,3.304056 2.483391,5.947912 6.323859,5.947912l0.074374,0l0.000204,0z"/>
   <path fill="#ffffff" fill-rule="evenodd" id="path30" d="m29.921936,64.110893l11.443872,0l0,-19.227303c0,-1.029015 0.074374,-2.057012 0.376558,-2.792605c0.827288,-2.055993 2.710284,-4.185341 5.871704,-4.185341c4.141022,0 5.797533,3.157345 5.797533,7.785876l0,18.419373l11.442955,0l0,-19.741811c0,-10.575424 -5.64583,-15.496359 -13.175063,-15.496359c-6.173684,0 -8.883968,3.450767 -10.389794,5.801201l0.076412,0l0,-4.993271l-11.443872,0c0.150175,3.2307 0,34.43024 0,34.43024l-0.000306,0z"/>
  </g>
 </g>
</svg>